How a Choir Works. BBC 2009. 832x468 x264 aac mp4 w/subtitles [aularon]



- - -
Synopsis
- - -
Choirmaster Gareth Malone joins forces with the BBC Singers to explore the styles and techniques that create a choir. He finds out why there are four sections, what polyphony is, what links Bach and the Beach Boys, what difference the venue makes and which choral combination is guaranteed to touch an emotional chord.

With repertoire ranging from Mahler to Queen and contributions from leading experts, the programme lifts the lid on the secrets of choral music.



- - -
URL
- - -          
http://www.bbc.co.uk/programmes/b00mqly3


- - -
Technical Details
- - -
General
Complete name                    : BBC.How.a.Choir.Works/How_a_Choir_Works_-_How_a_Choir_Works_b00mqly3_default.mp4
Format                           : MPEG-4
Format profile                   : Base Media
Codec ID                         : isom
File size                        : 633 MiB
Duration                         : 58mn 53s
Overall bit rate                 : 1 502 Kbps
Movie name                       : How a Choir Works
Album                            : How a Choir Works
Performer                        : How a Choir Works
Genre                            : Factual,Arts, Culture & the Media,Music,Classical
Recorded date                    : 2009-09-15T22:00:00+01:00
Tagged date                      : UTC 2011-09-05 04:44:17
Writing application              : Lavf53.10.0
Cover                            : Yes
Comment                          : Recorded using get_iplayer, by Aularon.
rtng                             : 2
stik                             : 1
desc                             : Choirmaster Gareth Malone joins forces with the BBC Singers to explore the styles and techniques that create a choir, using contributions from leading choral experts.
tvnn                             : BBC Four
tvsh                             : How a Choir Works
tven                             : b00mqly3
catg                             : Factual,Arts, Culture & the Media,Music,Classical

Video
ID                               : 1
Format                           : AVC
Format/Info                      : Advanced Video Codec
Format profile                   : Main@L3.0
Format settings, CABAC           : Yes
Format settings, ReFrames        : 4 frames
Format settings, GOP             : M=4, N=52
Codec ID                         : avc1
Codec ID/Info                    : Advanced Video Coding
Duration                         : 58mn 53s
Bit rate mode                    : Constant
Bit rate                         : 1 404 Kbps
Width                            : 832 pixels
Height                           : 468 pixels
Display aspect ratio             : 16:9
Frame rate mode                  : Constant
Frame rate                       : 25.000 fps
Standard                         : PAL
Color space                      : YUV
Chroma subsampling               : 4:2:0
Bit depth                        : 8 bits
Scan type                        : Progressive
Bits/(Pixel*Frame)               : 0.144
Stream size                      : 590 MiB (93%)

Audio
ID                               : 2
Format                           : AAC
Format/Info                      : Advanced Audio Codec
Format profile                   : HE-AAC / LC
Codec ID                         : 40
Duration                         : 58mn 53s
Bit rate mode                    : Constant
Bit rate                         : 96.0 Kbps
Channel(s)                       : 2 channels
Channel positions                : Front: L R
Sampling rate                    : 48.0 KHz / 24.0 KHz
Compression mode                 : Lossy
Stream size                      : 39.9 MiB (6%)


                  ______                                     
                 (____  \                                    
                  ____)  )_____  ____ _____ _   _  ___ _____ 
                 |  __  (| ___ |/ ___|____ | | | |/___) ___ |
            _ _ _| |__)  ) ____( (___/ ___ | |_| |___ | ____|
           (_|_|_)______/|_____)\____)_____|____/(___/|_____)
                                                              
                   ______ _                 _             
                  / _____) |               (_)            
                 ( (____ | |__  _____  ____ _ ____   ____ 
                  \____ \|  _ \(____ |/ ___) |  _ \ / _  |
                  _____) ) | | / ___ | |   | | | | ( (_| |
                 (______/|_| |_\_____|_|   |_|_| |_|\___ |
                                                   (_____|
                                  _      
                                 (_)     
                                  _  ___ 
                                 | |/___)
                                 | |___ |
                                 |_(___/ 

                    _______             _               
                   (_______)           (_)              
                    _       _____  ____ _ ____   ____   
                   | |     (____ |/ ___) |  _ \ / _  |  
                   | |_____/ ___ | |   | | | | ( (_| |_ 
                    \______)_____|_|   |_|_| |_|\___ (_)
                                               (_____|  

                                    ;)

